<?xml version="1.0" encoding="UTF-8"?>
<svg fill="#D9D9D9" width="100pt" height="100pt" version="1.1" viewBox="0 0 100 100" xmlns="http://www.w3.org/2000/svg">
 <path d="m64.781 27.008c-0.125 0.011719-0.25 0.035157-0.375 0.0625l-39 8c-0.98047 0.19141-1.8008 0.85938-2.1875 1.7812l-12.25 30.148h-1.9688v-2c0.011719-0.80078-0.30078-1.5742-0.86328-2.1484-0.56641-0.57031-1.3359-0.89453-2.1367-0.89453-0.80469 0.003907-1.5742 0.32422-2.1367 0.89453-0.5625 0.57422-0.875 1.3477-0.86328 2.1484v5c0 1.6562 1.3438 3 3 3h54c1.293-0.003906 2.4375-0.83203 2.8438-2.0625l2.1562-6.4688 2.1562 6.4688c0.40234 1.2305 1.5508 2.0586 2.8438 2.0625h24c1.6562 0 3-1.3438 3-3v-5c0.011719-0.80078-0.30078-1.5742-0.86328-2.1484-0.56641-0.57031-1.3359-0.89062-2.1367-0.89062-0.80469 0-1.5742 0.32031-2.1367 0.89062-0.5625 0.57422-0.875 1.3477-0.86328 2.1484v2h-5.0938l-18.188-38.305c-0.53906-1.1133-1.7031-1.7812-2.9375-1.6875zm-5.0625 7.125-15.781 32.867h-26.469l10.719-26.371 31.531-6.5zm5.2812 2.9062 14.25 29.961h-7.0938l-4.3125-12.965c-0.41016-1.2227-1.5547-2.043-2.8438-2.043s-2.4336 0.82031-2.8438 2.043l-4.3125 12.965h-7.25z"/>
</svg>
